<?xml version="1.0" encoding="iso-8859-1"?>
<!-- Generator: Adobe Illustrator 19.0.0, SVG Export Plug-In . SVG Version: 6.00 Build 0)  -->
<svg version="1.1" id="Layer_1" xmlns="http://www.w3.org/2000/svg" xmlns:xlink="http://www.w3.org/1999/xlink" x="0px" y="0px"
	 viewBox="0 0 511.988 511.988" style="enable-background:new 0 0 511.988 511.988;" xml:space="preserve">
<path style="fill:#F6BB42;" d="M375.612,108.566l-2.719-20.703c-0.25-1.828-0.953-3.547-2.062-5.016L321.49,17.256
	c-2-2.656-5.109-4.219-8.422-4.25c-3.327-0.078-6.452,1.469-8.499,4.094l-18.765,23.984c-2.422,3.094-2.938,7.25-1.375,10.844
	l23.078,52.748c1.391,3.188,4.265,5.5,7.671,6.187l47.779,9.546c0.688,0.141,1.406,0.219,2.094,0.219
	c2.688,0,5.296-1.016,7.28-2.891C374.847,115.394,376.081,111.972,375.612,108.566z"/>
<path style="fill:#FFCE54;" d="M494.701,189.61c-0.766-0.938-1.672-1.766-2.688-2.406l-44.498-27.921l-46.717-34.405l-7.859-31.452
	c-0.859-3.484-3.438-6.296-6.828-7.484c-1.469-0.516-36.592-12.64-72.746-12.64c-0.969,0-1.953,0-2.938,0.031
	c-26.671,0.5-61.529,16.983-75.497,24.186l-67.575-49.653c-3.671-2.719-8.671-2.766-12.421-0.156
	c-3.749,2.625-5.405,7.328-4.124,11.718l14.062,48.357c0.531,1.844,1.562,3.515,2.968,4.828l29.421,27.374
	c-10.234,9.859-29.03,28.874-53.654,57.748C81.53,270.544,32.064,347.962,1.503,400.086c-1.438,2.468-1.844,5.405-1.094,8.171
	c0.734,2.75,2.547,5.094,5.031,6.5l168.805,95.84c1.625,0.922,3.438,1.391,5.25,1.391c1.375,0,2.75-0.266,4.046-0.797
	c3.031-1.25,5.328-3.812,6.219-6.953c38.732-136.197,78.168-218.226,91.699-244.411c11.219,4.562,26.5,6.796,46.217,6.796
	c38.249,0,81.669-8.452,93.653-10.937l33.342,12.515c1.406,0.531,2.906,0.766,4.406,0.672l35.826-2.203
	c3.733-0.219,7.077-2.406,8.812-5.733c0.844-1.625,8.234-16.328,8.234-32.156C511.95,211.843,496.451,191.844,494.701,189.61z"/>
<path style="fill:#434A54;" d="M330.442,149.314c0,5.89-4.781,10.656-10.671,10.656c-5.891,0-10.655-4.766-10.655-10.656
	s4.765-10.671,10.655-10.671S330.442,143.424,330.442,149.314z"/>
<path style="fill:#FFCE54;" d="M338.957,89.551L274.991,4.273c-1.875-2.484-4.703-4.031-7.781-4.25
	c-3.093-0.203-6.124,0.922-8.312,3.109l-21.312,21.327c-3.094,3.078-3.984,7.734-2.266,11.75l5.593,13.031
	c0.109,0.266,0.25,0.531,0.391,0.781l14.484,27.296v29.327c0,5.906,4.766,10.671,10.672,10.671c5.874,0,10.655-4.766,10.655-10.671
	v-1.781l41.468-6.938l3.312,4.422c3.53,4.703,10.217,5.672,14.92,2.125C341.535,100.941,342.488,94.254,338.957,89.551z"/>
<g>
	<path style="fill:#FC6E51;" d="M205.995,175.641c-5.016-12.155-10.688-23.546-14.187-30.311
		c-10.844,10.749-27.468,28.077-48.201,52.404c-15.812,18.546-30.796,37.404-44.874,56.045c1.844,1.406,4.109,2.187,6.453,2.187
		c0.375,0,0.734-0.031,1.094-0.062c0.875-0.094,21.437-2.234,44.108-5.937c42.764-6.984,54.138-13.031,59.278-17.515
		C219.697,223.686,218.557,206.171,205.995,175.641z"/>
	<path style="fill:#FC6E51;" d="M243.086,345.727c12.859-32.388,23.905-56.56,31.639-72.434
		c-6.531-4.812-26.967-18.687-45.389-18.687c-2.938,0-5.766,0.343-8.374,1.031c-2.859,0.75-7.359,1.813-12.578,3.063
		c-13.875,3.296-34.843,8.296-52.295,13.687c-27.42,8.484-37.623,14.968-38.998,24.765c-0.844,6.141,2.469,11.422,9.875,15.719
		c3.578,2.094,8.5,4.25,15.031,6.625c10.155,3.686,24.311,7.889,42.092,12.482C209.807,338.619,235.977,344.227,243.086,345.727z"/>
	<path style="fill:#FC6E51;" d="M52.594,378.758c22.546,31.233,32.155,37.499,40.342,37.515l0,0c4.656,0,8.796-2.266,11.343-6.203
		c6.984-10.749,8.656-33.046,9.046-42.123c0.5-11.562,0.359-32.577-6.171-43.483c-6.156-10.264-16.515-36.076-19.984-45.153
		c-0.75-1.969-2.062-3.625-3.734-4.844c-18.999,26.202-36.061,51.606-50.873,74.855C36.438,355.352,44.079,366.977,52.594,378.758z"
		/>
	<path style="fill:#FC6E51;" d="M201.401,360.399c-31.718-18.125-43.014-20.218-48.749-20.218c-5.624,0-9.124,2.218-11.062,4.077
		c-2.812,2.703-6.375,7.844-9.062,23.75c-1.578,9.39-2.547,20.796-2.719,32.093c-0.375,25.858,3.062,42.686,10.218,50.014
		c2.906,2.969,11.733,11.999,49.951,11.999l0,0c5.046,0,9.39-0.156,12.39-0.312c9.703-31.326,19.281-59.201,28.28-83.606
		C226.056,375.226,214.447,367.852,201.401,360.399z"/>
</g>
<g>
	<path style="fill:#F6BB42;" d="M255.789,87.723c-8.656,3.687-16.015,7.296-20.858,9.796l20.858,9.125V87.723z"/>
	<polygon style="fill:#F6BB42;" points="236.618,240.826 277.194,268.278 281.46,259.826 	"/>
	<polygon style="fill:#F6BB42;" points="458.266,235.154 505.263,257.685 509.981,243.889 	"/>
	<path style="fill:#F6BB42;" d="M494.701,189.61c-0.766-0.938-1.672-1.766-2.688-2.406l-12.218-7.656
		c0,0.016-0.219,27.702,26.607,28.827C501.763,198.719,495.764,190.953,494.701,189.61z"/>
</g>
<g>
</g>
<g>
</g>
<g>
</g>
<g>
</g>
<g>
</g>
<g>
</g>
<g>
</g>
<g>
</g>
<g>
</g>
<g>
</g>
<g>
</g>
<g>
</g>
<g>
</g>
<g>
</g>
<g>
</g>
</svg>
